<?xml version="1.0" encoding="UTF-8"?>
<svg viewBox="0 0 50 50" version="1.1" xmlns="http://www.w3.org/2000/svg" xmlns:xlink="http://www.w3.org/1999/xlink">
    <title>assets/windows_artists_light</title>
    <g id="assets/windows_artists_light" stroke="none" stroke-width="1" fill="none" fill-rule="evenodd">
        <rect id="Fill" fill="#E9E9EA" x="0" y="0" width="50" height="50"></rect>
        <g id="􀑫" transform="translate(12.898682, 13.664355)" fill="#3C3C43" fill-opacity="0.6" fill-rule="nonzero">
            <path d="M14.375,9.54267578 C14.1653646,9.40042318 13.9912923,9.2469401 13.8527832,9.08222656 C13.7142741,8.91751302 13.6150716,8.80146484 13.5551758,8.73408203 C13.4952799,8.6741862 13.3829753,8.57498372 13.2182617,8.43647461 C13.0535482,8.29796549 12.8963216,8.12389323 12.746582,7.91425781 L2.66162109,18.6168945 L3.69482422,19.6500977 L14.375,9.54267578 Z M14.5771484,1.52412109 C15.2360026,0.865266927 15.9360352,0.419791667 16.6772461,0.187695312 C17.418457,-0.0444010417 18.1540527,-0.0612467448 18.8840332,0.137158203 C19.6140137,0.335563151 20.293457,0.74547526 20.9223633,1.36689453 C21.5512695,1.99580078 21.9649251,2.67711589 22.1633301,3.41083984 C22.361735,4.1445638 22.3430176,4.88203125 22.1071777,5.62324219 C21.8713379,6.36445312 21.4239909,7.06074219 20.7651367,7.71210937 L14.5771484,1.52412109 Z M16.4077148,9.83466797 L4.59326172,20.784375 C4.36865234,20.9940104 4.10847982,21.1063151 3.81274414,21.1212891 C3.51700846,21.136263 3.24186198,21.0127279 2.98730469,20.7506836 L1.13427734,22.1994141 C1.02945964,22.2742839 0.919026693,22.3079753 0.802978516,22.3004883 C0.686930339,22.2930013 0.580240885,22.2443359 0.482910156,22.1544922 L0.157226562,21.8175781 C0.0524088542,21.7202474 0,21.6116862 0,21.4918945 C0,21.3721029 0.0336914063,21.2672852 0.101074219,21.1774414 L1.53857422,19.3244141 C1.27652995,19.0548828 1.15299479,18.7741211 1.16796875,18.4821289 C1.18294271,18.1901367 1.2952474,17.9280924 1.50488281,17.6959961 L12.4658203,5.89277344 L16.4077148,9.83466797 Z M13.4541016,2.65839844 L19.6308594,8.84638672 C18.9645182,9.52021484 18.2569987,9.97692057 17.5083008,10.2165039 C16.7596029,10.4560872 16.0183919,10.4785482 15.284668,10.2838867 C14.550944,10.0892253 13.8771159,9.67369792 13.2631836,9.03730469 C12.6492513,8.39342448 12.2430827,7.70649414 12.0446777,6.97651367 C11.8462728,6.2465332 11.8631185,5.5109375 12.0952148,4.76972656 C12.3273112,4.02851562 12.7802734,3.32473958 13.4541016,2.65839844 Z M12.3535156,12.9567383 L12.4658203,15.1691406 L12.4658203,21.8063477 C12.4658203,22.0983398 12.3666178,22.3416667 12.1682129,22.5363281 C11.9698079,22.7309896 11.7283529,22.8283203 11.4438477,22.8283203 C11.1593424,22.8283203 10.9178874,22.7309896 10.7194824,22.5363281 C10.5210775,22.3416667 10.421875,22.0983398 10.421875,21.8063477 L10.421875,15.1691406 L10.4892578,14.3493164 L12.3535156,12.9567383 Z" id="Shape"></path>
        </g>
    </g>
</svg>